<?xml version="1.0" standalone="no"?>
<!DOCTYPE svg PUBLIC "-//W3C//DTD SVG 20010904//EN"
 "http://www.w3.org/TR/2001/REC-SVG-20010904/DTD/svg10.dtd">
<svg version="1.0" xmlns="http://www.w3.org/2000/svg"
 width="1200.000000pt" height="1200.000000pt" viewBox="0 0 1200.000000 1200.000000"
 preserveAspectRatio="xMidYMid meet">
<metadata>
Created by potrace 1.14, written by Peter Selinger 2001-2017
</metadata>
<g transform="translate(0.000000,1200.000000) scale(0.100000,-0.100000)"
fill="#000000" stroke="none">
<path d="M2065 10102 l0 -1599 3265 0 3265 0 40 -21 c157 -80 340 -258 441
-427 61 -101 127 -270 139 -351 4 -22 8 -46 10 -54 16 -56 21 -225 10 -315
-11 -88 -15 -109 -35 -185 -80 -301 -286 -569 -555 -722 l-80 -46 -2522 1
-2522 0 -34 -29 c-40 -36 -99 -89 -140 -127 -17 -16 -62 -56 -100 -90 -83 -74
-86 -77 -213 -192 -169 -154 -217 -197 -309 -280 -49 -44 -115 -105 -148 -135
-32 -30 -68 -62 -80 -73 -23 -20 -163 -145 -181 -162 -17 -16 -331 -300 -425
-385 -46 -41 -93 -84 -105 -95 -40 -36 -209 -190 -220 -200 -6 -5 -54 -48
-106 -95 -52 -47 -97 -87 -100 -90 -4 -4 -165 -151 -226 -205 -118 -107 -184
-166 -213 -193 -19 -19 -64 -59 -100 -90 -35 -31 -76 -68 -90 -82 -14 -14 -91
-84 -171 -155 -80 -71 -151 -136 -158 -142 -7 -7 -71 -65 -141 -128 l-128
-116 0 -1509 0 -1510 1688 0 1689 0 0 498 c0 273 2 922 3 1442 l2 945 838 0
c460 0 837 -4 837 -8 0 -5 6 -5 12 -1 16 10 189 11 195 1 2 -4 9 -4 15 -1 17
11 231 11 246 1 6 -5 12 -6 12 -1 0 5 564 9 1303 10 716 0 1331 3 1367 7 462
49 943 189 1360 397 74 37 151 77 170 89 19 11 42 24 50 28 8 3 69 40 135 82
637 402 1141 997 1444 1708 52 122 153 405 167 464 2 11 6 29 9 40 2 12 9 36
15 54 6 18 12 41 14 51 3 10 14 62 25 114 11 52 23 109 25 125 7 41 15 85 21
115 5 24 20 109 30 167 2 16 7 53 11 83 3 30 8 64 10 75 2 10 6 51 10 90 3 38
8 78 9 87 24 125 24 864 0 987 -2 9 -6 50 -10 90 -3 40 -8 80 -9 89 -2 9 -7
44 -10 77 -8 62 -15 115 -21 144 -2 9 -6 44 -10 76 -8 65 -121 416 -178 555
-73 179 -91 219 -159 354 -74 148 -169 316 -246 433 -62 95 -145 217 -152 223
-3 3 -39 48 -80 100 -72 93 -92 116 -195 229 -161 178 -415 406 -613 552 -59
44 -111 82 -117 87 -18 14 -160 106 -180 118 -11 6 -51 30 -90 54 -60 37 -407
218 -420 219 -3 1 -22 8 -43 17 -233 99 -574 212 -722 240 -14 2 -32 7 -40 10
-8 4 -31 8 -50 11 -19 2 -48 8 -65 13 -16 5 -50 12 -75 15 -25 4 -52 8 -60 10
-8 1 -37 6 -63 9 -27 4 -59 10 -70 14 -12 4 -1390 8 -3062 9 l-3040 3 0 -1598z"/>
</g>
</svg>
