<?xml version="1.0" encoding="utf-8"?>
<!-- Generator: Adobe Illustrator 27.3.1, SVG Export Plug-In . SVG Version: 6.00 Build 0)  -->
<svg version="1.1" id="Layer_1" xmlns="http://www.w3.org/2000/svg" xmlns:xlink="http://www.w3.org/1999/xlink" x="0px" y="0px"
	 viewBox="0 0 613.8 115.2" style="enable-background:new 0 0 613.8 115.2;" xml:space="preserve">
<style type="text/css">
	.st0{fill:#23262F;}
	.st1{fill:url(#SVGID_1_);}
</style>
<g>
	<g>
		<g>
			<path class="st0" d="M102.9,12.1C94.9,5.3,86.3,4,83,3.7c-16.9,0-33.7,0-50.5,0v27.1c16.9,0,33.7,0,50.5,0l31.7,0.1
				C113.9,27.8,111.2,19.1,102.9,12.1z"/>
			<path class="st0" d="M114.8,30.8c-9,0-18.1,0-27.1-0.1c3.3,1.6,5.6,5,5.7,8.7c0.1,3.9-2.1,7.7-5.8,9.4
				c-14.2,0-42.7,27.1-42.7,27.1c13.3,0,26.8,0,40.1,0c2.6-0.2,13.1-1.4,21.3-10.1c6.2-6.6,7.9-13.9,8.4-17c0.5-2.5,0.9-5.6,0.9-9.1
				C115.6,36.3,115.2,33.3,114.8,30.8z"/>
			<path class="st0" d="M87.6,48.8H44.8c-0.1,9-0.1,18-0.2,27.1c12.8,0,25.7,0,38.5,0L87.6,48.8z"/>
		</g>
		<polygon class="st0" points="44.8,48.8 44.7,100.3 16.1,100.3 16.1,74.7 		"/>
		
			<linearGradient id="SVGID_1_" gradientUnits="userSpaceOnUse" x1="44.9853" y1="55.636" x2="72.0287" y2="55.636" gradientTransform="matrix(1 0 0 -1 0 118)">
			<stop  offset="0" style="stop-color:#000000;stop-opacity:0.5"/>
			<stop  offset="6.851614e-02" style="stop-color:#222121;stop-opacity:0.4657"/>
			<stop  offset="0.1687" style="stop-color:#2E2C2A;stop-opacity:0.4157"/>
			<stop  offset="0.2751" style="stop-color:#2E2D29;stop-opacity:0.3624"/>
			<stop  offset="0.3872" style="stop-color:#2C2C26;stop-opacity:0.3064"/>
			<stop  offset="0.5068" style="stop-color:#2A2B23;stop-opacity:0.2466"/>
			<stop  offset="0.6374" style="stop-color:#282921;stop-opacity:0.1813"/>
			<stop  offset="0.7873" style="stop-color:#26281F;stop-opacity:0.1064"/>
			<stop  offset="1" style="stop-color:#26281E;stop-opacity:0"/>
		</linearGradient>
		<path class="st1" d="M45,48.8c0,9,0,18,0,27.1c6,0,12.1,0.1,18.1,0.1c5.6-2.2,9.1-8,8.9-14.1c-0.2-5.8-3.7-10.9-8.9-13
			c-2.7,0-6.7,0-9.4,0C51.4,48.8,47.4,48.8,45,48.8z"/>
		<path d="M38,39.2"/>
	</g>
	<g>
		<g>
			<path class="st0" d="M162.9,4.7l36.4,96.8h-21.4L167.1,70h-27l-10.8,31.4h-21.4l36.4-96.8C144.3,4.7,162.9,4.7,162.9,4.7z
				 M153.5,29.4l-9,25.9h18L153.5,29.4z M144.6,55.3L140.1,70h27l-4.5-14.8"/>
			<path class="st0" d="M251.2,4.7c6.7,0,12.3,1.3,17,3.8s8.4,5.8,11.1,9.6c2.7,3.8,4.5,8.2,5.4,13c0.8,4.7,0.7,9.5-0.4,14.1
				s-3.1,8.8-6.2,12.6c-3,3.8-7,6.8-11.8,8.8l20,34.9h-19.5l-18.3-31.8h-19.1v31.6h-19.5V4.7H251.2z M251.2,53.5
				c3,0,5.7-0.8,7.8-2.4c2.1-1.6,3.7-3.6,4.7-6.1c1-2.4,1.6-5,1.6-7.8s-0.5-5.5-1.5-7.8c-1.1-2.4-2.6-4.4-4.7-6.1
				c-2.1-1.6-4.7-2.4-8-2.4h-21.7v32.5H251.2z"/>
			<path class="st0" d="M301,101.5V4.7h19.5v96.8H301z"/>
			<path class="st0" d="M421.4,4.7V21h-34.2h-19.6h-34.1V4.7H421.4z"/>
			<path class="st0" d="M453.9,85.1h51.7v16.4h-71.2V4.7h69.3V21h-49.8L453.9,85.1L453.9,85.1z"/>
			<polygon class="st0" points="580.4,4.3 604.7,4.3 581.4,41.2 568.6,23.6 			"/>
			<polygon class="st0" points="580.9,60 607.6,102.1 581.8,101.4 568.6,78.8 			"/>
			<path class="st0" d="M542.6,4.7l24.8,41.1c0.4,0.9,0.7,1.7,1.1,2.6c0.2,1,0.3,2,0.5,3.1v2.2c0,0.6-0.2,1.4-0.5,2.3
				c-0.2,0.6-0.5,1.1-0.8,1.5c-9.1,14.7-18.2,29.2-27.3,43.9h-23.8c10.4-16.6,20.8-33,31.3-49.6c-9.8-15.8-19.6-31.5-29.4-47.3"/>
		</g>
		<path class="st0" d="M387.2,101.5h-19.6V29.8c0-2,1.7-3.7,3.7-3.7H384c1.8,0,3.3,1.5,3.3,3.3v72.1H387.2z"/>
		<polygon class="st0" points="496.8,63.4 463,63.4 496.8,47.2 		"/>
		<polygon class="st0" points="496.8,47.2 463,63.4 472.9,47.2 		"/>
	</g>
</g>
</svg>
